<svg class="LogoIcon-sc-17y3hya-8 irsKne" alt="Flamingo" id="Layer_1" data-name="Layer 1" viewBox="0 0 287.45 86.66" aria-labelledby="flamingo-logo-title"><title id="flamingo-logo-title">Flamingo</title><defs><style>.logo{fill:#302c2e;}</style></defs><path class="logo" d="M31.78,10.61a5.81,5.81,0,0,0-1.32-2.14,11,11,0,0,0-9.24-3.38,12.76,12.76,0,0,0-8.6,5c-2.83,3.69-3.17,8.24-3.17,12.72v3.33H4.22L0,32.4h9.5V49.31c0,7.65-6.23,9.49-6.23,9.49v2.86H26.69V58.53s-12-.44-12-8.77V32.4h9.83l4.27-6.28H14.71c-1.92-3.76-2.8-12.09,1.83-14.27a6.25,6.25,0,0,1,6,.6c1.84,1.24,3.61,3.1,6,2.91a3.81,3.81,0,0,0,3.31-4.28C31.86,10.92,31.82,10.76,31.78,10.61Z"></path><path class="logo" d="M43.18,49.76V19.68A190.32,190.32,0,0,1,44.92,0L32.72,5.07l1.14,3.34.08.05c3.87,1.94,4,10.26,4,11.21V49.31c0,7.65-5.52,9.37-5.76,9.45l-.17,0v2.86H49.68V58.53l-.18,0C49.24,58.44,43.18,57,43.18,49.76Z"></path><path class="logo" d="M269.11,23.55c-10.15,0-18.4,8.78-18.4,19.57s8.25,19.57,18.4,19.57,18.4-8.78,18.4-19.57S279.26,23.55,269.11,23.55Zm0,32.46a13.18,13.18,0,0,1-13.42-12.89,13.43,13.43,0,0,1,26.84,0A13.18,13.18,0,0,1,269.11,56Z"></path><path class="logo" d="M165,49.76V38.35c0-5,1.53-16.16,1.54-16.22l.06-.42-12.06,5,1.13,3.34.09,0c3.86,2,4,10.27,4,11.21v8a10.16,10.16,0,0,1-2.88,7.62,8.33,8.33,0,0,1-3.05,1.87v2.86h17.68V58.53A8.78,8.78,0,0,1,165,49.76Z"></path><path class="logo" d="M161,16.17a5.37,5.37,0,1,0-5.37-5.37A5.36,5.36,0,0,0,161,16.17Z"></path><path class="logo" d="M145.63,49.76V33.7c0-3.52-2-10.18-9.8-10.18-7.52,0-13.23,5.18-14.65,6.6a9.1,9.1,0,0,0-9.21-6.6c-7.32,0-11.9,4.92-13.48,6.47.21-3,1-7.81,1-7.86l.06-.42-12.06,5,1.13,3.34.08,0c3.87,2,4,10.27,4,11.21v8a10.13,10.13,0,0,1-2.88,7.62,8.33,8.33,0,0,1-3,1.87v2.86h17.69V58.53a8.79,8.79,0,0,1-6.5-8.77V41.34a57.19,57.19,0,0,1,.45-7.77c5.68-3.71,9.41-5.23,12.39-4.29,4.41,1.39,5.76,4.2,5.76,12v8a10.13,10.13,0,0,1-2.88,7.62,8.33,8.33,0,0,1-3,1.87v2.86h17.69V58.53a8.79,8.79,0,0,1-6.5-8.77V33.7c0-.16,0-.33,0-.5,3.19-2,9-5.13,12.85-3.92,4.41,1.39,5.76,4.2,5.76,12v8a10.16,10.16,0,0,1-2.88,7.62,8.33,8.33,0,0,1-3.05,1.87v2.86h17.69V58.53A8.8,8.8,0,0,1,145.63,49.76Z"></path><path class="logo" d="M209.12,49.76V33.7c0-3.51-2.05-10.17-9.8-10.17-7.31,0-12.93,4.92-14.52,6.47.22-3,1-7.82,1-7.87l.06-.41-12.06,5,1.13,3.34.09,0c3.86,1.94,4,10.27,4,11.21v8a10.19,10.19,0,0,1-2.87,7.63A8.33,8.33,0,0,1,173,58.81v2.86h17.68V58.54a8.79,8.79,0,0,1-6.49-8.78V41.35a40.33,40.33,0,0,1,.46-7.77c5.68-3.71,10.44-5.23,13.42-4.3,4.41,1.39,5.76,4.21,5.76,12v8A10.23,10.23,0,0,1,201,56.94a8.41,8.41,0,0,1-3.06,1.87v2.86H215V58.5C215,58.48,209.12,57,209.12,49.76Z"></path><path class="logo" d="M83.51,56.68a2.39,2.39,0,0,1-1.39.26c-1.31-.36-1.47-4.39-1.47-4.73V41.85c.09-2.42,0-4.83,0-7.25,0-9.66-7.93-12-12.68-12-5.29,0-12.76,2.83-14.8,8a5,5,0,0,0-.4,2.43c.25,2,3,3,4.68,1.86a7.75,7.75,0,0,0,1.8-2A20.63,20.63,0,0,1,63,28.65c2.16-1.72,5-2.52,7.59-1.16a6.18,6.18,0,0,1,3.57,5.56,3.26,3.26,0,0,1-1.67,2.68C66.86,38.85,62.8,38,55.82,41.48c-3.84,1.89-5.63,5.78-5.63,10.11,0,4.08,3.72,11.1,13.73,11.1,3.65,0,9.83-1.4,12-4.29.93,2.55,2.67,3.88,5.23,3.88A4.44,4.44,0,0,0,85,59.93a3,3,0,0,0,.36-3.11C85,56.16,84.25,56.43,83.51,56.68Zm-8.18-8.37c-.39,5.36-5.8,8.33-12,8.33a10.15,10.15,0,0,1-6.5-1.92c-2.44-2.07-1.8-5.49.49-7.42,2.92-2.46,7-2.76,10.51-3.71A30.15,30.15,0,0,0,72.69,42c.56-.26,2.64-1.16,2.62-2,0,0,0,1.12,0,1.12s0,4.52,0,5.31S75.37,47.73,75.33,48.31Z"></path><path class="logo" d="M247.72,61c-5.19-2.48-15.76-2-19.18-2s-6-.56-6-2.51c0-1.56,1.05-2.67,2.13-3.66A14.12,14.12,0,0,0,232,54.88c8.2,0,14.87-7.09,14.87-15.81a16.34,16.34,0,0,0-3.69-10.41c.3-1.51,1.18-3.91,2.33-4.8a1.71,1.71,0,0,1,1.54-.38,5.44,5.44,0,0,1,2.19,1.37c1,.9,2.11,1.83,4.13,1.2a3.74,3.74,0,0,0,2.81-3.65,5.42,5.42,0,0,0-3.47-5,7.63,7.63,0,0,0-5.35.3c-3.47,1.4-5.52,4.47-6.26,8.91a14.23,14.23,0,0,0-9.1-3.32c-8.2,0-14.87,7.09-14.87,15.82a16.3,16.3,0,0,0,4.29,11.1A10.5,10.5,0,0,0,217,58.31c0,4,5.14,6.32,5.14,6.32S215.49,70,215.49,76s7.91,10.43,15.13,10.43,13.1-2.42,17.51-7.34C253.53,73.09,253.63,63.8,247.72,61Zm-26-21.89c0-5.22,4.61-9.45,10.29-9.45s10.29,4.23,10.29,9.45-4.61,9.45-10.29,9.45S221.75,44.29,221.75,39.07ZM244.86,76c-4.21,4.17-12.53,3.78-12.53,3.78s-10.46-.22-10.46-6.75,3.59-7.55,3.59-7.55,16.34-.45,19.4,1.16C247.55,68.05,249,71.9,244.86,76Z"></path></svg>